<svg width="90" height="90" viewBox="0 0 90 90" fill="none" xmlns="http://www.w3.org/2000/svg">
<circle cx="45" cy="45" r="45" fill="white"/>
<g clip-path="url(#clip0)">
<path fill-rule="evenodd" clip-rule="evenodd" d="M9.1997 35.3214V32.6562H12.4799V35.3214H9.1997ZM9.1997 47.4172V36.494H12.4799V47.4131L9.1997 47.4172ZM67.5563 42.8228H60.1918C60.3271 43.9833 61.1651 44.873 62.7793 44.873C63.7665 44.9 64.7193 44.4982 65.4047 43.7659L67.3672 45.8324C66.36 47.0011 64.7638 47.7124 62.7893 47.7124C59.0294 47.7124 56.8181 45.4799 56.8181 41.8818C56.8181 38.5585 58.9518 36.1414 62.3315 36.1414C65.7112 36.1414 67.6757 38.2633 67.6757 41.4267C67.6862 41.8952 67.6462 42.3635 67.5563 42.8228ZM64.4095 40.7317C64.3358 39.598 63.6034 38.7902 62.3434 38.7902C61.0835 38.7902 60.353 39.5898 60.1978 40.7317H64.4095ZM73.1393 47.7022C71.5192 47.7022 69.5387 47.2655 68.0758 45.8304L69.9468 43.7598C70.81 44.5946 71.9473 45.0632 73.1314 45.0718C74.2739 45.0718 74.7715 44.7664 74.7715 44.299C74.7715 43.9442 74.5227 43.7434 73.8977 43.5506C73.3523 43.3826 72.4925 43.2349 71.7679 43.0156C70.1936 42.542 68.6291 41.8675 68.6291 39.5775C68.625 37.4576 70.305 36.1578 73.1095 36.1578C74.662 36.1578 76.4136 36.4838 77.8865 37.8287L75.9956 39.8481C75.1696 39.028 74.0172 38.7328 73.0836 38.7328C72.2397 38.7328 71.772 39.0383 71.772 39.4627C71.772 39.8153 72.0207 40.0223 72.6576 40.2356C73.211 40.418 74.1266 40.5964 74.8471 40.8076C76.3579 41.2463 77.9224 41.9085 77.9224 44.0878C77.9303 46.5254 75.9299 47.7042 73.1393 47.7042V47.7022ZM22.631 36.9225C21.7995 35.9257 20.5742 35.3708 19.299 35.4136C17.9157 35.4136 17.1932 35.9262 17.1932 36.656C17.1932 37.6442 18.2859 37.9865 20.3778 38.5913C22.6747 39.2576 25.2842 40.01 25.2842 43.1283C25.2842 46.2466 22.7683 47.6878 19.5856 47.6878C16.9006 47.6878 14.7091 46.8985 13.2999 44.9386L15.7481 42.8475C16.6816 44.1411 18.1008 44.668 19.5458 44.668C21.2635 44.668 21.8905 44.053 21.8905 43.3866C21.8905 42.419 20.8953 42.1832 18.4849 41.4923C16.0049 40.7809 13.8513 39.7968 13.8513 36.777C13.8513 34.1261 15.9591 32.3999 19.4064 32.3999C21.5959 32.3999 23.6043 32.9985 25.0533 34.8601L22.631 36.9225ZM55.5761 36.2849C56.2026 36.2596 56.808 36.5207 57.2301 36.9984L55.9144 39.8481C55.5876 39.5957 55.1883 39.4629 54.7799 39.4709C53.9439 39.4709 53.2274 40.213 53.2274 41.562V47.4131H49.9193V36.494H53.1716V38.0255C53.7528 36.9779 54.4953 36.2849 55.5761 36.2849ZM36.4682 40.0531V47.4131H33.2019V41.2422C33.2019 40.0572 32.5849 39.3314 31.4942 39.3314C30.4034 39.3314 29.661 40.0305 29.661 41.2832V47.4131H26.3888V32.6521H29.661V37.9619C30.4267 36.8894 31.6468 36.2622 32.9392 36.2767C34.9356 36.2767 36.4682 37.6216 36.4682 40.0531ZM48.8505 44.8812V47.1958C48.2381 47.4373 47.5875 47.5596 46.9318 47.5566C46.0301 47.5566 45.1245 47.2655 44.7005 46.1892C43.9919 47.0092 42.6683 47.6386 41.1675 47.6386C38.9781 47.6386 37.5709 46.4865 37.5709 44.2928C37.5709 42.1463 39.2587 40.8629 41.8662 40.8629C42.7318 40.8644 43.5941 40.9745 44.4338 41.191V40.8342C44.4338 39.6042 43.7451 38.8784 42.318 38.8784C41.3559 38.9082 40.4348 39.2864 39.7166 39.9465L37.9252 37.8553C38.994 36.859 40.7297 36.1168 42.732 36.1168C45.8171 36.1168 47.6801 37.6462 47.6801 40.5103V44.3358C47.6801 44.7459 47.8792 44.9509 48.3111 44.9509C48.495 44.9502 48.678 44.9268 48.8565 44.8812H48.8505ZM44.4358 43.0094C43.8364 42.8564 43.222 42.7745 42.6046 42.7655C41.478 42.7655 40.9208 43.3354 40.9208 44.1165C40.9208 44.8566 41.4143 45.3917 42.4255 45.3917C43.4963 45.3917 44.4358 44.7316 44.4358 43.731V43.0094ZM80.9975 46.4496C81.0173 46.7474 80.9105 47.0394 80.7044 47.2494C80.4983 47.4594 80.2135 47.5663 79.9246 47.5423C79.2439 47.5423 78.8518 47.1035 78.8518 46.4496C78.8518 45.7956 79.2499 45.3548 79.9246 45.3548C80.214 45.3307 80.499 45.4379 80.7052 45.6483C80.9114 45.8587 81.018 46.1513 80.9975 46.4496ZM80.8223 46.4496C80.8544 46.0992 80.691 45.7603 80.4007 45.5749C80.1103 45.3894 79.743 45.3894 79.4526 45.5749C79.1622 45.7603 78.9988 46.0992 79.0309 46.4496C79.0309 47.0646 79.3991 47.3967 79.9326 47.3967C80.466 47.3967 80.8223 47.0687 80.8223 46.4496ZM80.1416 46.5766L80.3406 46.9641H80.1257L79.9386 46.6074H79.7057V46.9641H79.5066V45.8878H79.9485C80.2053 45.8878 80.3466 46.0231 80.3466 46.2323C80.3624 46.3817 80.2781 46.5234 80.1416 46.5766ZM80.1516 46.2446C80.1516 46.1277 80.0898 46.0579 79.9525 46.0579H79.7037V46.4372H79.9246C80.0719 46.4372 80.1516 46.3901 80.1516 46.2446ZM22.1426 55.9703V51.542H21.1633V55.9703H22.1426ZM38.446 52.5773C37.4985 52.5773 36.6944 53.2456 36.6944 54.3138C36.6944 55.3819 37.4906 56.0564 38.446 56.0564C39.4014 56.0564 40.1975 55.3819 40.1975 54.3138C40.1975 53.2456 39.3875 52.5773 38.446 52.5773ZM38.446 55.1891C38.2256 55.1911 38.0146 55.0973 37.8649 54.9306C37.7152 54.7639 37.6407 54.5399 37.6598 54.3138C37.6102 53.9936 37.7483 53.6735 38.0121 53.4969C38.2759 53.3202 38.616 53.3202 38.8799 53.4969C39.1437 53.6735 39.2818 53.9936 39.2322 54.3138C39.2513 54.5399 39.1769 54.7639 39.0271 54.9306C38.8774 55.0973 38.6664 55.1911 38.446 55.1891ZM20.0806 53.6454C20.4348 53.4839 20.6605 53.1196 20.6538 52.7208C20.6538 52.075 20.2 51.542 19.1868 51.542H17.2382V55.9703H19.2704C20.2895 55.9703 20.7792 55.4475 20.7792 54.6951C20.7989 54.224 20.5142 53.7963 20.0806 53.6454ZM18.2593 52.4009H19.0694C19.3959 52.4009 19.6128 52.5506 19.6128 52.8499C19.6128 53.1492 19.4178 53.3256 19.0615 53.3256H18.2514L18.2593 52.4009ZM19.1411 55.1133H18.2593V54.1456H19.1411C19.4934 54.1456 19.7044 54.3302 19.7044 54.6274C19.7044 54.9247 19.5034 55.1133 19.1331 55.1133H19.1411ZM29.2921 53.4732C29.0215 52.8951 28.5198 52.5732 27.7615 52.5732C26.8638 52.5732 26.0637 53.1533 26.0637 54.3014C26.0637 55.4495 26.7683 56.0441 27.7476 56.0441C28.4363 56.0441 29.0155 55.7612 29.2861 55.1502L28.49 54.7401C28.3593 55.0215 28.0779 55.195 27.7754 55.1809C27.3236 55.1809 27.0251 54.8468 27.0251 54.3096C27.0251 53.7725 27.3614 53.4465 27.7675 53.4465C28.0737 53.4351 28.3542 53.6218 28.4701 53.9139L29.2921 53.4732ZM43.7265 53.4732C43.4558 52.8951 42.9543 52.5732 42.1959 52.5732C41.2983 52.5732 40.4981 53.1533 40.4981 54.3014C40.4981 55.4495 41.2027 56.0441 42.182 56.0441C42.8707 56.0441 43.4498 55.7612 43.7206 55.1502L42.9244 54.7401C42.7937 55.0215 42.5123 55.195 42.2099 55.1809C41.7581 55.1809 41.4595 54.8468 41.4595 54.3096C41.4595 53.7725 41.7959 53.4465 42.2019 53.4465C42.5081 53.4351 42.7887 53.6218 42.9045 53.9139L43.7265 53.4732ZM35.747 54.2727C36.2511 54.0512 36.5729 53.5352 36.5591 52.9709C36.5591 52.0155 35.8704 51.5358 34.8872 51.5358H33.0659V55.9641H34.0771V54.4757H34.7041L35.5181 55.9641H36.6905L35.747 54.2727ZM34.8294 53.5921H34.0771V52.4214H34.8294C35.3051 52.4214 35.5221 52.6264 35.5221 53.0098C35.524 53.3256 35.2992 53.6023 34.8314 53.6023L34.8294 53.5921ZM25.7473 55.2322C25.6946 55.2441 25.6397 55.2287 25.6001 55.1912C25.5605 55.1536 25.5411 55.0986 25.5482 55.0436V53.8955C25.5482 53.0386 24.9889 52.5793 24.0633 52.5793C23.539 52.579 23.0317 52.7708 22.6323 53.1206L23.1736 53.7356C23.3891 53.5377 23.6654 53.4245 23.9539 53.4158C24.3818 53.4158 24.5888 53.6352 24.5888 54.0021V54.1087C24.3369 54.0437 24.0782 54.0106 23.8185 54.0103C23.0363 54.0103 22.5307 54.3958 22.5307 55.0354C22.5307 55.6751 22.9527 56.04 23.6095 56.04C24.0057 56.0496 24.3883 55.8918 24.6684 55.6033C24.78 55.8772 25.0523 56.0436 25.3392 56.0133C25.5357 56.0134 25.7307 55.9765 25.9145 55.9047V55.2096C25.8611 55.2287 25.8055 55.2404 25.7492 55.2445L25.7473 55.2322ZM24.5868 54.8632C24.5868 55.1625 24.3062 55.3614 23.9897 55.3614C23.6732 55.3614 23.5399 55.2014 23.5399 54.978C23.5399 54.7545 23.7071 54.568 24.0435 54.568C24.2286 54.5708 24.4128 54.5949 24.5928 54.6397L24.5868 54.8632ZM47.2257 55.9579L46.0712 53.8975L47.15 52.6962H46.0613L44.9227 54V51.5399H43.9654V55.9682H44.9367V55.1707L45.4025 54.6581L46.1309 55.9662L47.2257 55.9579ZM32.8032 55.9579L31.6488 53.8975L32.7316 52.6839H31.6249L30.5004 53.9877V51.5276H29.531V55.9559H30.5004V55.1707L30.9641 54.6581L31.6926 55.9662L32.8032 55.9579ZM14.6906 52.6777L14.1094 54.8406L13.4087 52.6941H12.3578L13.6516 56.0031C13.5751 56.1883 13.3873 56.2977 13.1938 56.2696C13.0578 56.2678 12.9251 56.2259 12.8116 56.1486L12.4573 56.8416C12.6818 57.0033 12.9497 57.0886 13.2236 57.0855C13.9501 57.0855 14.3801 56.6755 14.6388 55.8965L15.7017 52.6941L14.6906 52.6777ZM10.9247 52.5383C10.5788 52.5333 10.2448 52.6688 9.9952 52.9155V51.542H9V55.9703H9.96335V55.673C10.2074 55.9343 10.5492 56.0741 10.9008 56.0564C11.7408 56.0564 12.3817 55.3737 12.3817 54.2932C12.3817 53.2128 11.7667 52.5383 10.9247 52.5383ZM10.666 55.1707C10.4066 55.1798 10.1582 55.0629 9.9952 54.855V53.7704C10.1458 53.5545 10.386 53.4239 10.6441 53.4179C11.074 53.4179 11.3964 53.7213 11.3964 54.2953C11.3964 54.8693 11.1098 55.1707 10.666 55.1707Z" fill="#2BA6E3"/>
</g>
<defs>
<clipPath id="clip0">
<rect width="72" height="25.2" fill="white" transform="translate(9 32.3999)"/>
</clipPath>
</defs>
</svg>
