<svg width="90" height="90" viewBox="0 0 90 90" fill="none" xmlns="http://www.w3.org/2000/svg">
<circle cx="45" cy="45" r="45" fill="white"/>
<g clip-path="url(#clip0)">
<path d="M20.3107 43.198C22.8418 45.543 25.224 47.6274 25.224 51.7964C25.224 56.3375 22.9162 59.5014 17.7051 59.5014C13.9828 59.5014 10.4094 57.9381 10.1117 52.0942L10 49.9353L15.025 49.6747L15.0995 51.0519C15.2484 53.7319 16.2162 54.5881 17.5934 54.5881C18.7845 54.5881 19.3429 53.8808 19.3429 52.5036C19.3429 50.6053 17.2212 48.893 15.1739 47.1064C12.1589 44.4263 10.4094 42.1557 10.4094 38.1729C10.4094 34.0785 12.7917 30.8401 17.7795 30.8401C21.6135 30.8401 24.554 32.5151 24.8146 38.1729L24.889 39.7363L19.9757 39.9969L19.9384 38.6568C19.9012 36.9818 19.3429 35.679 17.854 35.679C16.9607 35.679 16.1045 36.2374 16.1045 37.689C16.1045 39.6246 17.2956 40.3691 20.3107 43.198ZM69.6944 35.8651H70.476C71.4811 35.8651 72.4861 36.4607 72.4861 40.0341C72.4861 43.5702 71.3322 44.1285 70.2527 44.1285H69.6944V35.8651ZM79 59.1293L75.7989 46.3991C77.7344 44.9474 78.8139 42.3791 78.8139 39.2524C78.8139 34.004 75.9478 31.2123 71.5183 31.2123H63.3665V59.1293H69.6944V47.8508H70.2155L72.7094 59.1293H79ZM54.917 45.1336C54.917 52.8386 53.8376 54.4765 52.0136 54.4765H51.0831V35.8651H52.0136C53.8376 35.8651 54.917 37.4657 54.917 45.1336ZM44.7552 59.1293H52.7581C58.3787 59.1293 61.2449 54.6625 61.2449 45.1336C61.2449 35.6418 58.3787 31.2123 52.7581 31.2123H44.7552V59.1293ZM36.6407 40.4063C36.6407 44.3147 35.6357 44.9474 34.5935 44.9474H33.7001V35.8651H34.5935C35.6357 35.8651 36.6407 36.5351 36.6407 40.4063ZM35.1146 49.6003C40.1024 49.6003 42.9685 46.7714 42.9685 40.4063C42.9685 33.9296 40.1024 31.2123 35.6357 31.2123H27.3723V59.1293H33.7001V49.6003H35.1146Z" fill="#7AAB6C"/>
</g>
<defs>
<clipPath id="clip0">
<rect width="69" height="28.98" fill="white" transform="translate(10 30.8401)"/>
</clipPath>
</defs>
</svg>
