<svg width="90" height="90" viewBox="0 0 90 90" fill="none" xmlns="http://www.w3.org/2000/svg">
<circle cx="45" cy="45" r="45" fill="white"/>
<path d="M35.2311 68.8642H38.0467L38.0462 68.788C38.0467 68.788 37.4747 68.773 37.4919 67.7546C37.4919 67.7546 37.4892 64.6143 37.4886 64.6137C37.4919 62.4318 35.2844 62.5102 35.2844 62.5102C34.3594 62.528 33.7324 63.0894 33.5784 63.2434L33.579 62.5191L30.7417 62.6309V62.7115C31.3287 62.7509 31.2781 63.6387 31.2781 63.6626V67.923C31.0846 67.9247 30.7472 67.9258 30.7472 67.9169C29.7988 67.863 29.7977 66.8913 29.8005 66.8629C29.8005 66.8629 29.7755 64.8984 29.7755 64.9106C29.7872 63.5008 28.9477 63.0505 28.9589 63.04C27.3718 62.0566 25.0987 62.7315 25.0987 62.7315C25.0987 62.7315 24.6123 64.2708 24.6012 64.2596C27.0149 63.2023 27.4096 64.248 27.3962 64.2118C27.4374 64.3147 27.4441 64.4069 27.4246 64.4887C27.3456 64.9467 26.5073 65.0679 26.4974 65.0679C25.5028 65.2447 24.9803 65.4309 24.9803 65.4309C23.4515 65.9524 23.6533 67.2421 23.6533 67.2543C23.9146 68.912 26.1532 68.8664 26.1532 68.8664H27.1122L27.5975 67.8708C26.6024 68.0715 26.295 67.5278 26.295 67.5278C25.8809 66.839 26.5084 66.4377 26.5084 66.4377C26.753 66.2475 27.5374 66.0719 27.5374 66.0719V67.077C27.6169 68.9359 29.5959 68.8708 29.6582 68.8631H31.2798V68.8636L34.126 68.8642V68.7892C34.1243 68.7892 33.6001 68.7708 33.5751 67.8869L33.5779 65.0146V65.0135C33.5578 63.95 34.4339 63.9367 34.4329 63.935C35.2867 63.9261 35.2244 64.6832 35.23 64.8523C35.23 64.8523 35.2311 67.7546 35.2305 67.7557H35.2517L35.2311 67.7585" fill="#A20A35"/>
<path d="M22.5708 59.7324V59.8075C23.4641 60.1555 23.1311 61.0338 23.1311 61.0338L21.4963 66.2548L19.2877 59.7469H16.2002V59.8392C16.7294 59.9598 16.9874 60.8815 16.9874 60.8815L19.0142 66.5272C19.574 68.1165 20.6241 68.4301 20.6241 68.4301L21.9204 68.9337L25.0379 59.7324" fill="#A20A35"/>
<path d="M71.0767 67.7557L71.075 59.7485L68.2049 59.8603V59.9409C68.7914 59.9809 68.7408 60.8687 68.7408 60.8909V62.9661C66.7351 61.6853 65.2787 63.3452 65.2875 63.3152C64.3508 64.2524 64.3908 65.7306 64.3809 65.7211C64.3809 67.2804 65.2875 68.0748 65.2875 68.0748C66.481 69.3606 67.9192 68.8603 67.9192 68.8603C67.9192 68.8603 68.5407 67.748 68.5407 67.7385C66.7668 68.0348 66.7668 65.7306 66.7768 65.7211C66.7768 63.7426 67.8275 63.855 67.8369 63.8444C68.7408 63.855 68.7402 64.895 68.7402 64.8578L68.7413 64.9395V68.8642L68.7419 68.8636V68.8642L71.6392 68.8664V68.7891C71.6381 68.7891 71.0622 68.847 71.0767 67.7557Z" fill="#A20A35"/>
<path d="M62.4582 63.3419V62.5191L59.6204 62.6309V62.7109C60.2069 62.7509 60.1569 63.6381 60.1569 63.6626L60.1552 67.4194L60.1557 67.9225C59.9711 67.9241 59.5904 67.9258 59.5904 67.9164C58.6409 67.863 58.6398 66.8913 58.6431 66.8629C58.6431 66.8629 58.6192 64.8984 58.6192 64.91C58.6298 63.5003 57.7903 63.0505 57.8026 63.0395C56.2155 62.056 53.9419 62.7309 53.9419 62.7309C53.9419 62.7309 53.4566 64.2708 53.4438 64.2591C55.858 63.2018 56.2511 64.248 56.2394 64.2113C56.2805 64.3147 56.2861 64.4069 56.2666 64.4887C56.1877 64.9467 55.35 65.0674 55.3394 65.0674C54.3455 65.2447 53.8234 65.4309 53.8234 65.4309C52.2953 65.9518 52.4971 67.2421 52.4971 67.2537C52.7578 68.912 54.9953 68.8664 54.9953 68.8664H55.9548L56.4401 67.8702C55.445 68.0715 55.1387 67.5272 55.1387 67.5272C54.7245 66.839 55.3505 66.4371 55.3505 66.4371C55.5957 66.2475 56.3817 66.0713 56.3817 66.0713V67.077C56.4595 68.9359 58.4402 68.8703 58.4997 68.8631H60.1569V68.8636H63.0197V68.7891C62.9925 68.7908 62.4433 68.8331 62.4566 67.7535L62.4577 65.2041H62.4582C62.4594 65.2124 62.3799 63.7588 64.2933 64.0789V62.518C64.2933 62.518 63.087 62.1477 62.4582 63.3419Z" fill="#A20A35"/>
<path d="M41.323 65.9685C41.2613 65.9824 40.4347 65.9079 40.5247 64.7517C40.5347 64.7622 40.502 63.7199 41.3253 63.7199C41.3253 63.7199 42.0724 63.6882 42.0902 64.7333C42.0902 64.7517 42.1908 65.9685 41.323 65.9685ZM47.8037 62.5103H41.2296C40.4558 62.5486 39.5892 62.6971 38.9065 63.3608C38.9065 63.3608 37.7185 64.5204 38.7381 65.9891C38.7464 65.9891 39.2229 66.6701 40.025 66.928C40.0255 66.9275 40.0333 66.928 40.0444 66.9313L40.0311 66.9335C40.1039 66.9313 39.4641 67.0053 39.1828 67.1726C39.0266 67.2727 38.9766 67.3822 39.0205 67.6557C39.0644 67.9259 39.3068 68.8097 40.2396 68.8631C40.905 68.8925 41.8605 68.7741 42.3653 69.1488C42.3653 69.1488 42.7278 69.4134 42.7278 69.8554C42.7278 70.1901 42.6894 70.8738 41.2947 70.946C41.2296 70.9455 40.1384 70.9377 39.9244 70.1645C39.9233 70.1595 39.8104 69.5046 40.4486 69.414C40.4486 69.414 39.6097 69.2172 38.8998 69.414C37.9387 69.682 37.6529 70.5675 38.1939 71.2007C38.1861 71.1929 38.9777 72.1318 41.1135 72.1168C43.2653 72.1741 45.4205 71.5298 45.0387 69.3701C45.0287 69.3701 44.7802 67.8297 42.4499 67.838H41.2991C41.2991 67.838 40.8088 67.8747 40.7093 67.6429C40.7082 67.6407 40.4914 67.2921 41.1718 67.2682H41.1724L41.2969 67.2543C41.2969 67.2543 43.307 67.0075 43.9297 66.128C43.9386 66.1186 44.8813 65.0763 43.9113 63.8222C43.9102 63.8222 43.8257 63.7071 43.7612 63.6527H45.489C45.4867 64.4409 45.4817 66.7512 45.4901 66.7679C45.4856 68.9509 47.7331 68.8714 47.7331 68.8714C48.6987 68.8531 49.338 68.2411 49.4553 68.1209L49.4547 68.8637L52.3215 68.8642V68.7892C51.7073 68.7619 51.7578 67.7774 51.7584 67.7552V64.3909L51.759 62.5192L48.9222 62.6309V62.7115C49.5093 62.751 49.4581 63.6388 49.4581 63.6626V65.6311L49.4575 66.3699C49.4564 66.3699 49.4564 66.3682 49.4547 66.3671C49.4225 67.5795 48.5775 67.4361 48.5809 67.4505C47.7837 67.4589 47.8037 66.5778 47.8037 66.5778" fill="#A20A35"/>
<path d="M72.0061 60.9015C72.0061 60.3567 72.4491 59.9131 72.995 59.9131C73.5392 59.9131 73.9823 60.3567 73.9823 60.9015C73.9823 61.4468 73.5392 61.8893 72.995 61.8893C72.4491 61.8893 72.0061 61.4468 72.0061 60.9015ZM71.8477 60.9015C71.8477 61.5335 72.3624 62.0484 72.995 62.0484C73.626 62.0484 74.1407 61.5335 74.1407 60.9015C74.1407 60.2694 73.626 59.7542 72.995 59.7542C72.3624 59.7542 71.8477 60.2694 71.8477 60.9015Z" fill="#A20A35"/>
<path d="M72.7465 60.9744V61.5842H72.5586V60.2328H73.0417C73.2685 60.2328 73.502 60.3045 73.502 60.5713C73.502 60.7342 73.4053 60.8593 73.249 60.8971V60.901C73.4108 60.9393 73.4325 61.0272 73.4531 61.1784C73.4736 61.3129 73.4886 61.4563 73.5375 61.5842H73.3374C73.3213 61.5036 73.2985 61.4158 73.2891 61.3351C73.2741 61.214 73.2741 61.1028 73.2124 61.035C73.1584 60.9744 73.0834 60.9799 73.0083 60.9744H72.7465ZM72.7426 60.8131H73.0517C73.2591 60.8037 73.3057 60.7098 73.3057 60.6036C73.3057 60.4963 73.2591 60.4023 73.0517 60.3934H72.7426" fill="#A20A35"/>
<path d="M55.2891 49.8117L61.4581 46.0991L61.6311 46.0047L68.1195 43.4679" stroke="#231F20" stroke-width="0.2875"/>
<path d="M55.3242 49.88L63.2471 48.9438L69.1202 43.2749" stroke="#231F20" stroke-width="0.2875"/>
<path d="M58.6211 51.1856L61.8484 47.588" stroke="#231F20" stroke-width="0.2875"/>
<path d="M58.5156 51.2877L68.8948 43.3934" stroke="#231F20" stroke-width="0.2875"/>
<path d="M58.5986 50.6327L63.1999 51.7212L73.6258 40.9076" stroke="#231F20" stroke-width="0.2875"/>
<path d="M58.6211 50.4268L63.2016 50.8378" stroke="#231F20" stroke-width="0.2875"/>
<path d="M63.2236 50.7279L69.3105 43.1667" stroke="#231F20" stroke-width="0.2875"/>
<path d="M53.4814 21.1304L73.5797 40.8255" stroke="#231F20" stroke-width="0.2875"/>
<path d="M53.4814 21.1304L55.6583 23.9761" stroke="#231F20" stroke-width="0.2875"/>
<path d="M72.8109 41.2036L53.5381 24.5947" stroke="#231F20" stroke-width="0.2875"/>
<path d="M53.6348 24.8898L55.8974 27.5244" stroke="#231F20" stroke-width="0.2875"/>
<path d="M56.1045 27.7659L69.2075 43.0033" stroke="#231F20" stroke-width="0.2875"/>
<path d="M53.2568 29.5093L68.2226 43.5536" stroke="#231F20" stroke-width="0.2875"/>
<path d="M53.2188 29.5811L57.544 35.1487" stroke="#231F20" stroke-width="0.2875"/>
<path d="M53.1748 29.6926L56.345 35.3504" stroke="#231F20" stroke-width="0.2875"/>
<path d="M56.7822 36.1282L62.5455 46.4148" stroke="#231F20" stroke-width="0.2875"/>
<path d="M53.2217 36.1135L59.4902 40.9873" stroke="#231F20" stroke-width="0.2875"/>
<path d="M53.0439 39.7672L54.6014 41.1472" stroke="#231F20" stroke-width="0.2875"/>
<path d="M55.7461 42.1649L61.8494 47.5881" stroke="#231F20" stroke-width="0.2875"/>
<path d="M38.5605 38.7091C44.5444 42.4711 49.7954 44.1695 56.3529 42.7307C56.3529 42.7307 58.1284 42.3898 59.1727 41.5609" stroke="#231F20" stroke-width="0.2875"/>
<path d="M51.293 39.4895L51.7593 36.925" stroke="#231F20" stroke-width="0.2875"/>
<path d="M52.2129 35.4464L52.7294 31.7251" stroke="#231F20" stroke-width="0.2875"/>
<path d="M53.025 32.7825H52.5977" stroke="#231F20" stroke-width="0.2875"/>
<path d="M53.121 33.5697H52.5059" stroke="#231F20" stroke-width="0.2875"/>
<path d="M53.2026 34.5017H52.3711" stroke="#231F20" stroke-width="0.2875"/>
<path d="M52.0586 37.2167H51.709" stroke="#231F20" stroke-width="0.2875"/>
<path d="M52.0606 37.947H51.5674" stroke="#231F20" stroke-width="0.2875"/>
<path d="M52.0285 38.7611H51.4072" stroke="#231F20" stroke-width="0.2875"/>
<path d="M52.7986 30.0111L51.6963 35.3971" stroke="#231F20" stroke-width="0.2875"/>
<path d="M51.5323 36.0884L50.5391 40.7866" stroke="#231F20" stroke-width="0.2875"/>
<path d="M50.2572 42.1261L49.7891 44.3333" stroke="#231F20" stroke-width="0.2875"/>
<path d="M50.9837 42.2056L49.685 45.3031L47.4951 50.5212" stroke="#231F20" stroke-width="0.2875"/>
<path d="M50.7331 44.0477L48.583 50.5369" stroke="#231F20" stroke-width="0.2875"/>
<path d="M51.4154 43.231L49.5967 50.6692" stroke="#231F20" stroke-width="0.2875"/>
<path d="M51.5563 44.6221L50.8633 49.4292" stroke="#231F20" stroke-width="0.2875"/>
<path d="M52.5628 44.0131H50.2354" stroke="#231F20" stroke-width="0.2875"/>
<path d="M52.2182 44.8774H49.8916" stroke="#231F20" stroke-width="0.2875"/>
<path d="M52.1487 45.7765L49.4873 45.7661" stroke="#231F20" stroke-width="0.2875"/>
<path d="M52.2047 46.6805H49.1211" stroke="#231F20" stroke-width="0.2875"/>
<path d="M48.752 47.5857H51.9048" stroke="#231F20" stroke-width="0.2875"/>
<path d="M48.3594 48.5105H51.8851" stroke="#231F20" stroke-width="0.2875"/>
<path d="M47.9902 49.3939H51.8232" stroke="#231F20" stroke-width="0.2875"/>
<path d="M53.1644 24.9912L52.5977 27.5471" stroke="#231F20" stroke-width="0.2875"/>
<path d="M52.4837 28.0636L50.8467 35.4526" stroke="#231F20" stroke-width="0.2875"/>
<path d="M50.7008 36.1068L49.6738 40.7375" stroke="#231F20" stroke-width="0.2875"/>
<path d="M49.3553 42.1746L47.9424 48.5478" stroke="#231F20" stroke-width="0.2875"/>
<path d="M53.4256 21.1583L52.7412 24.0542" stroke="#231F20" stroke-width="0.2875"/>
<path d="M52.6312 24.5293L51.9209 27.5342" stroke="#231F20" stroke-width="0.2875"/>
<path d="M51.7895 28.101L50.0771 35.3506" stroke="#231F20" stroke-width="0.2875"/>
<path d="M49.9008 36.1016L48.6895 41.2393" stroke="#231F20" stroke-width="0.2875"/>
<path d="M48.4656 42.1851L47.8799 44.8569" stroke="#231F20" stroke-width="0.2875"/>
<path d="M45.3838 40.9365L52.1533 36.1" stroke="#231F20" stroke-width="0.2875"/>
<path d="M48.8174 35.1724L52.909 29.5847" stroke="#231F20" stroke-width="0.2875"/>
<path d="M53.3735 24.5327L50.4707 27.4918" stroke="#231F20" stroke-width="0.2875"/>
<path d="M51.3301 23.9859L53.4118 21.1315" stroke="#231F20" stroke-width="0.2875"/>
<path d="M52.243 39.6707C52.243 39.6707 50.7185 40.4537 44.1445 40.3948" stroke="#231F20" stroke-width="0.2875"/>
<path d="M57.5761 35.5133C57.5346 35.6016 57.2491 35.8334 56.7602 36.1406C55.876 36.697 54.3246 37.5025 52.3242 38.1868" stroke="#231F20" stroke-width="0.2875"/>
<path d="M51.4704 38.442C47.9931 39.5071 43.3987 40.1301 38.6201 38.6419" stroke="#231F20" stroke-width="0.2875"/>
<path d="M48.6694 35.4813C48.6694 35.4813 43.9081 39.8481 38.6406 38.5001" stroke="#231F20" stroke-width="0.2875"/>
<path d="M41.3203 41.1979L52.2351 50.5977" stroke="#231F20" stroke-width="0.2875"/>
<path d="M38.4414 38.8971L40.267 40.3559" stroke="#231F20" stroke-width="0.2875"/>
<path d="M47.6445 44.0003L47.7519 39.2814" stroke="#231F20" stroke-width="0.2875"/>
<path d="M47.249 43.9986L47.3763 42.1738" stroke="#231F20" stroke-width="0.2875"/>
<path d="M39.8301 27.851L55.4499 35.1102" stroke="#231F20" stroke-width="0.2875"/>
<path d="M55.8731 27.9893C55.2769 28.2801 47.0651 31.2175 38.7529 27.1034" stroke="#231F20" stroke-width="0.2875"/>
<path d="M50.5018 27.4987C50.5018 27.4987 45.4316 29.1106 38.7988 27.0704" stroke="#231F20" stroke-width="0.2875"/>
<path d="M48.7346 35.1464L39.3184 27.6908" stroke="#231F20" stroke-width="0.2875"/>
<path d="M43.0851 33.7128L38.7148 27.144" stroke="#231F20" stroke-width="0.2875"/>
<path d="M53.3861 23.9539L38.9775 17.7252" stroke="#231F20" stroke-width="0.2875"/>
<path d="M38.9863 17.7382L41.0896 20.5528" stroke="#231F20" stroke-width="0.2875"/>
<path d="M39.0605 21.1403C42.2584 23.0455 47.4757 24.5769 51.1858 24.069" stroke="#231F20" stroke-width="0.2875"/>
<path d="M39.6055 21.6637C42.5351 23.6667 48.5389 26.6292 55.1466 24.4679" stroke="#231F20" stroke-width="0.2875"/>
<path d="M38.9111 21.0771L41.916 24.6453" stroke="#231F20" stroke-width="0.2875"/>
<path d="M29.8711 24.8806L31.6223 27.2358" stroke="#231F20" stroke-width="0.2875"/>
<path d="M29.8711 24.8806L38.423 26.8291" stroke="#231F20" stroke-width="0.2875"/>
<path d="M31.5908 27.2678C32.6767 27.1657 34.6917 26.4588 36.6654 25.2129" stroke="#231F20" stroke-width="0.2875"/>
<path d="M37.458 24.6789C38.954 23.6138 40.3488 22.2304 41.2001 20.5623" stroke="#231F20" stroke-width="0.2875"/>
<path d="M27.2959 30.3039L29.7038 27.6926" stroke="#231F20" stroke-width="0.2875"/>
<path d="M30.083 27.2825L38.8737 17.7495" stroke="#231F20" stroke-width="0.2875"/>
<path d="M30.6768 32.6372L31.9063 30.7856" stroke="#231F20" stroke-width="0.2875"/>
<path d="M32.166 30.3938L35.902 24.7664L38.8109 21.1506" stroke="#231F20" stroke-width="0.2875"/>
<path d="M29.8477 27.6L32.2452 30.2744" stroke="#231F20" stroke-width="0.2875"/>
<path d="M30.0225 27.6779L36.8724 33.9274" stroke="#231F20" stroke-width="0.2875"/>
<path d="M38.2456 27.0507C37.614 27.4807 34.6913 27.9505 31.7002 27.2955" stroke="#231F20" stroke-width="0.2875"/>
<path d="M37.9776 27.3838C36.9333 28.172 33.8168 29.6593 27.3613 30.2365" stroke="#231F20" stroke-width="0.2875"/>
<path d="M38.4793 27.0619C38.1385 27.6667 36.1701 29.4361 32.8701 30.265" stroke="#231F20" stroke-width="0.2875"/>
<path d="M38.1385 27.7826L34.0547 33.6799" stroke="#231F20" stroke-width="0.2875"/>
<path d="M41.8956 24.8243C40.4611 26.9571 35.3312 31.7859 30.6348 32.6598" stroke="#231F20" stroke-width="0.2875"/>
<path d="M38.915 17.7859L38.1631 20.6048" stroke="#231F20" stroke-width="0.2875"/>
<path d="M38.0276 21.1074L37.0654 24.7093" stroke="#231F20" stroke-width="0.2875"/>
<path d="M36.9375 25.1843L34.6387 33.8798" stroke="#231F20" stroke-width="0.2875"/>
<path d="M34.488 34.4508L32.9834 40.1405" stroke="#231F20" stroke-width="0.2875"/>
<path d="M32.6106 41.5457L30.1914 49.5835" stroke="#231F20" stroke-width="0.2875"/>
<path d="M38.8108 21.1506L37.9473 24.7361" stroke="#231F20" stroke-width="0.2875"/>
<path d="M37.8433 25.1705L35.791 33.8695" stroke="#231F20" stroke-width="0.2875"/>
<path d="M35.5976 34.6906L34.292 40.2271" stroke="#231F20" stroke-width="0.2875"/>
<path d="M34.0684 41.1683L33.5596 43.3297" stroke="#231F20" stroke-width="0.2875"/>
<path d="M32.9442 46.1235L32.0469 49.5836" stroke="#231F20" stroke-width="0.2875"/>
<path d="M34.1298 34.1454L30.2822 41.0429" stroke="#231F20" stroke-width="0.2875"/>
<path d="M29.8992 41.7274L29.2451 42.905" stroke="#231F20" stroke-width="0.2875"/>
<path d="M37.7084 38.0553L29.6826 31.926" stroke="#231F20" stroke-width="0.2875"/>
<path d="M38.7207 34.8904L44.3966 40.0116" stroke="#231F20" stroke-width="0.2875"/>
<path d="M30.9524 41.8718L29.0186 43.0589" stroke="#231F20" stroke-width="0.2875"/>
<path d="M43.0995 34.1549L37.877 37.6123" stroke="#231F20" stroke-width="0.2875"/>
<path d="M36.974 38.2094L33.7441 40.3455" stroke="#231F20" stroke-width="0.2875"/>
<path d="M33.7979 47.9171L35.2999 41.1433" stroke="#231F20" stroke-width="0.2875"/>
<path d="M35.7764 38.9915L36.6866 34.8739" stroke="#231F20" stroke-width="0.2875"/>
<path d="M36.8662 34.0649L38.4011 27.1189" stroke="#231F20" stroke-width="0.2875"/>
<path d="M38.1762 29.4827L37.3525 34.0372" stroke="#231F20" stroke-width="0.2875"/>
<path d="M37.1158 35.6387L36.627 38.0604" stroke="#231F20" stroke-width="0.2875"/>
<path d="M38.4715 30.8419H37.9688" stroke="#231F20" stroke-width="0.2875"/>
<path d="M38.4717 31.618H37.7891" stroke="#231F20" stroke-width="0.2875"/>
<path d="M38.4853 32.42H37.665" stroke="#231F20" stroke-width="0.2875"/>
<path d="M38.4837 33.2611H37.5146" stroke="#231F20" stroke-width="0.2875"/>
<path d="M37.7803 37.1208L36.8096 37.1183" stroke="#231F20" stroke-width="0.2875"/>
<path d="M37.7531 36.3301L36.9961 36.3284" stroke="#231F20" stroke-width="0.2875"/>
<path d="M37.3342 38.2767L36.6914 40.1759" stroke="#231F20" stroke-width="0.2875"/>
<path d="M36.3835 41.0853L33.4678 49.7073" stroke="#231F20" stroke-width="0.2875"/>
<path d="M36.5435 41.9315L34.6582 50.3397" stroke="#231F20" stroke-width="0.2875"/>
<path d="M37.1136 41.1494L36.1982 48.8283" stroke="#231F20" stroke-width="0.2875"/>
<path d="M35.6699 43.2466H37.4029" stroke="#231F20" stroke-width="0.2875"/>
<path d="M35.3633 44.1223H37.4217" stroke="#231F20" stroke-width="0.2875"/>
<path d="M35.0586 45.0013H37.4362" stroke="#231F20" stroke-width="0.2875"/>
<path d="M37.4992 45.8778H34.7764" stroke="#231F20" stroke-width="0.2875"/>
<path d="M34.4355 46.7577H37.5063" stroke="#231F20" stroke-width="0.2875"/>
<path d="M34.1406 47.6273H37.5047" stroke="#231F20" stroke-width="0.2875"/>
<path d="M33.8389 48.6119H37.555" stroke="#231F20" stroke-width="0.2875"/>
<path d="M33.3721 41.4591C33.8696 41.8017 34.8032 42.2213 35.8761 42.4913" stroke="#231F20" stroke-width="0.2875"/>
<path d="M37.8193 42.814C40.5716 43.1973 44.0861 43.1524 47.3281 42.1772" stroke="#231F20" stroke-width="0.2875"/>
<path d="M49.8584 41.1865C50.5964 40.8154 51.4236 40.3144 52.082 39.8099" stroke="#231F20" stroke-width="0.2875"/>
<path d="M43.7458 40.7219C42.7127 41.4643 35.6767 46.4791 22.4795 48.8421" stroke="#231F20" stroke-width="0.2875"/>
<path d="M32.4943 41.6261C30.442 44.1586 25.6479 47.8635 22.4785 48.9017" stroke="#231F20" stroke-width="0.2875"/>
<path d="M31.083 39.8888L37.3914 35.0305" stroke="#231F20" stroke-width="0.2875"/>
<path d="M33.6582 40.1847L33.7473 37.9376" stroke="#231F20" stroke-width="0.2875"/>
<path d="M32.9229 40.138L29.668 37.1045" stroke="#231F20" stroke-width="0.2875"/>
<path d="M32.7387 36.6147L29.6309 31.8335" stroke="#231F20" stroke-width="0.2875"/>
<path d="M30.8125 41.6893L37.9194 49.9825" stroke="#231F20" stroke-width="0.2875"/>
<path d="M29.5664 40.2747L30.275 41.0005" stroke="#231F20" stroke-width="0.2875"/>
<path d="M33.0801 36.657C34.493 36.2383 35.6991 35.7105 36.6232 35.2147" stroke="#231F20" stroke-width="0.2875"/>
<path d="M37.4794 34.6705C37.4794 34.6705 37.1826 34.7501 36.6686 34.8826C35.3137 35.2347 32.4559 35.9701 29.6543 36.6147" stroke="#231F20" stroke-width="0.2875"/>
<path d="M29.8235 24.8546L28.0723 27.2565" stroke="#231F20" stroke-width="0.2875"/>
<path d="M29.8179 24.9126L28.5771 30.3747" stroke="#231F20" stroke-width="0.2875"/>
<path d="M28.4753 30.8273L26.1436 41.0897" stroke="#231F20" stroke-width="0.2875"/>
<path d="M25.9962 41.7377L24.3428 49.0142" stroke="#231F20" stroke-width="0.2875"/>
<path d="M29.734 27.6302L29.1543 30.3747" stroke="#231F20" stroke-width="0.2875"/>
<path d="M29.0611 30.8152L26.8955 41.0785" stroke="#231F20" stroke-width="0.2875"/>
<path d="M26.7667 41.6866L25.2041 49.0825" stroke="#231F20" stroke-width="0.2875"/>
<path d="M29.4759 31.9054L26.3975 36.6278" stroke="#231F20" stroke-width="0.2875"/>
<path d="M29.4322 31.9512L28.4502 36.6727" stroke="#231F20" stroke-width="0.2875"/>
<path d="M28.3431 37.1892L27.541 41.0515" stroke="#231F20" stroke-width="0.2875"/>
<path d="M27.405 41.7142L25.8701 49.1041" stroke="#231F20" stroke-width="0.2875"/>
<path d="M29.1486 34.6532L28.2773 39.5927" stroke="#231F20" stroke-width="0.2875"/>
<path d="M29.0264 35.3929H29.6346" stroke="#231F20" stroke-width="0.2875"/>
<path d="M28.916 36.0566H29.6342" stroke="#231F20" stroke-width="0.2875"/>
<path d="M27.6559 37.1312L23.5625 37.3986" stroke="#231F20" stroke-width="0.2875"/>
<path d="M27.9252 37.1477L24.999 38.3547" stroke="#231F20" stroke-width="0.2875"/>
<path d="M28.6723 37.2152L24.6689 41.0819" stroke="#231F20" stroke-width="0.2875"/>
<path d="M28.5268 39.8109L28.3408 40.6951" stroke="#231F20" stroke-width="0.2875"/>
<path d="M28.1195 41.7524L26.7871 48.0876" stroke="#231F20" stroke-width="0.2875"/>
<path d="M28.2846 42.9932L27.6963 48.1914" stroke="#231F20" stroke-width="0.2875"/>
<path d="M27.6396 44.1318H28.8034" stroke="#231F20" stroke-width="0.2875"/>
<path d="M27.4688 44.9969H28.796" stroke="#231F20" stroke-width="0.2875"/>
<path d="M27.2871 45.8795H28.7961" stroke="#231F20" stroke-width="0.2875"/>
<path d="M27.1006 46.7586L28.8034 46.7568" stroke="#231F20" stroke-width="0.2875"/>
<path d="M27.1007 41.7603L23.1328 47.5798" stroke="#231F20" stroke-width="0.2875"/>
<path d="M25.9603 41.7188L19.1709 47.129" stroke="#231F20" stroke-width="0.2875"/>
<path d="M22.4725 40.7627L22.1377 36.4591" stroke="#231F20" stroke-width="0.2875"/>
<path d="M22.0398 40.7437L21.8252 36.3164" stroke="#231F20" stroke-width="0.2875"/>
<path d="M22.2911 48.8284C20.3756 46.8972 17.6882 41.2326 20.8168 35.6493" stroke="#231F20" stroke-width="0.2875"/>
<path d="M34.0922 33.6671L30.6348 32.6599" stroke="#231F20" stroke-width="0.2875"/>
<path d="M57.4548 50.2805L56.2764 50.9501C56.2764 50.9501 56.632 51.0263 56.9945 50.8204C57.2212 50.6924 57.4167 50.4301 57.4548 50.2805Z" fill="white"/>
<path d="M22.5215 51.0272L22.4229 50.6924H22.6279H22.4229L22.5224 51.0272" fill="white"/>
<path d="M23.1012 51.42L22.999 51.0844H22.9999" fill="white"/>
<path d="M23.2616 51.0272L23.1621 50.6924H23.3715H23.163L23.2625 51.0272" fill="white"/>
<path d="M23.3809 51.42L23.3203 51.215L23.3818 51.42" fill="white"/>
<path d="M23.7432 51.0837L23.7797 51.2141L23.7432 51.0837Z" fill="white"/>
<path d="M24.0036 51.0272L23.9023 50.6924H24.1109H23.9041L24.0053 51.0272" fill="white"/>
<path d="M24.1227 51.42L24.0215 51.0844L24.1236 51.42" fill="white"/>
<path d="M29.6875 30.6305H29.7818V30.429H29.6875V30.6305Z" fill="#231F20"/>
<path d="M20.8819 35.2188L20.7495 35.3901L20.6016 35.2776L20.733 35.1029" fill="white"/>
<path d="M55.7896 51.3344L55.7905 51.7653C55.5222 51.7653 55.3674 51.7307 55.3674 51.7307V51.2669C55.5421 51.3162 55.7013 51.3301 55.7896 51.3344ZM56.0111 51.3344C56.0111 51.3344 56.2395 51.3275 56.4584 51.292L56.4575 51.684C56.3503 51.7125 56.166 51.7549 56.0111 51.7566V51.3344ZM55.1467 51.6952C54.4156 51.4849 54.2305 50.8205 54.7712 50.5635C54.7712 50.5635 54.7478 50.9545 55.1467 51.1752V51.6952ZM56.6764 51.2444C56.7335 51.228 57.0822 51.1362 57.3894 50.8507C57.3894 50.8507 57.1904 51.3941 56.6764 51.6095V51.2444ZM54.1336 51.4598H52.4412V51.0333H51.8563V51.4598H50.3845V51.0333H49.8022V51.4598H48.3297V51.0333H47.7456V51.4598H46.2756V51.0333H45.6907V51.4598H44.2189V51.0333H43.6358V51.4598H42.1649V51.0333H41.5792V51.4598H40.1092V51.0333H39.5243V51.4598H38.0543V51.0333H37.4702V51.4598H35.9994V51.0333H35.4145V51.4598H33.9427V51.0333H33.3587V51.4598H31.8887V51.0333H31.3046V51.4598H29.8321V51.0333H29.248V51.4598H27.7772V51.0333H27.1932V51.4598H25.7222V51.0333H25.1382V51.4598H24.8484L24.6606 50.8291H54.1396C54.1396 50.8291 54.1751 50.8274 54.1751 50.8291C54.1751 51.1259 54.1924 51.2565 54.349 51.4598H54.1336ZM24.3916 51.4512L24.3016 51.1441H24.4945L24.5871 51.4512H24.3916ZM24.1034 51.4512L24.0134 51.1441H24.2064L24.2981 51.4512H24.1034ZM23.8862 50.746H24.0783L24.1709 51.0523H23.9762L23.8862 50.746ZM23.6543 51.4512L23.5653 51.1441H23.759L23.8508 51.4512H23.6543ZM23.368 51.4512L23.2771 51.1441H23.4709L23.5626 51.4512H23.368ZM23.1491 50.746H23.342L23.4346 51.0523H23.2399L23.1491 50.746ZM22.9181 51.4512L22.8298 51.1441H23.0219L23.1153 51.4512H22.9181ZM22.6308 51.4512L22.5417 51.1441H22.7347L22.8264 51.4512H22.6308ZM22.4136 50.746H22.6066L22.6983 51.0523H22.5019L22.4136 50.746ZM22.8938 50.746L22.9873 51.0523H22.7909L22.7018 50.746H22.8938ZM23.631 50.746L23.7236 51.0523H23.5263L23.4372 50.746H23.631ZM24.3665 50.746L24.459 51.0523H24.2643L24.1735 50.746H24.3665ZM25.6894 50.156H25.1071V49.7302H25.6894V50.156ZM23.3057 48.8944L23.2053 47.7723L26.6947 48.2421L26.5278 49.1134L23.3057 48.8944ZM23.4026 49.8713L23.2382 49.3106H23.5825L23.7487 49.8713H23.4026ZM27.6127 48.3641L27.515 49.18L26.6835 49.1238L26.8427 48.2611L27.6127 48.3641ZM27.7521 50.156H27.1689V49.7302H27.7521V50.156ZM27.7607 48.384L28.5507 48.4904L28.5342 49.2492L27.6751 49.1904L27.7607 48.384ZM27.6872 41.489V41.1905H28.7125L28.7046 41.5081C28.433 41.7304 27.8126 41.6431 27.6872 41.489ZM27.5868 41.489C27.3324 41.7434 26.6654 41.6473 26.5347 41.489V41.1922L27.5868 41.1905V41.489ZM26.4352 41.489C26.1955 41.7434 25.5708 41.6473 25.4488 41.489V41.1922L26.4352 41.1905V41.489ZM25.3545 41.4873C25.3545 41.4873 25.332 41.5418 25.1772 41.5418C24.6078 41.5418 24.5369 41.1922 24.5369 41.1922L25.3545 41.1905V41.4873ZM28.5723 36.9466V37.0063C28.3958 37.1352 27.9675 37.1482 27.791 37.0089L27.7893 36.7935L27.7434 37.0029C27.5807 37.1266 27.1974 37.0799 27.0806 36.9604C26.9336 37.0331 26.6757 36.9267 26.5624 36.7892H29.4488V36.9466H28.5723ZM29.2662 30.5716V30.7672C29.1329 30.7525 29.0092 30.717 28.9694 30.6547V30.4661H29.6849V30.5716H29.2662ZM28.8968 30.6547C28.773 30.8044 28.3378 30.788 28.1821 30.6547V30.4661H28.8968V30.6547ZM29.2298 39.5414V37.246H29.4488L29.4505 39.5414H29.2298ZM29.7732 39.9031C29.7732 39.9031 30.0389 39.9264 30.1877 39.7837C30.2759 39.8884 30.4879 40.0813 30.8669 40.0813V40.4075H31.4422C31.5504 40.5347 31.803 40.7727 32.2556 40.9517H29.2298V40.6056C29.5413 40.539 29.7732 40.2708 29.7732 39.9031ZM29.1719 27.5754C29.0603 27.6524 28.6778 27.6524 28.5905 27.5555V27.3972H29.7334L29.7308 27.5598C29.6495 27.6568 29.2965 27.6679 29.1719 27.5754ZM28.5342 27.5408C28.3274 27.5858 28.1786 27.411 28.1656 27.3972H28.5342V27.5408ZM30.545 36.7892L30.5432 37.0029C30.4429 37.0833 30.2534 37.1093 30.0787 37.0954V36.9466H29.8061L29.8053 36.7892H30.545ZM30.6064 36.7892H31.3808L31.3791 37.0029C31.2069 37.1396 30.7647 37.1309 30.6064 37.0029V36.7892ZM32.092 36.7892V36.9466C31.996 37.0764 31.6127 37.1327 31.4422 37.0029L31.4405 36.7892H32.092ZM32.1422 36.7935H32.5981C32.452 36.9639 32.2123 36.9942 32.1422 36.944V36.7935ZM33.2358 40.4421V40.8626C33.2358 40.8626 33.1987 40.9405 32.9339 40.9405C31.9648 40.9405 31.8454 40.443 31.8454 40.443L33.2358 40.4421ZM33.3691 40.443L34.8677 40.4395V40.8635C34.6245 41.1092 34.1201 41.1239 33.7549 41.0417V41.0313V41.0417C33.5983 41.0011 33.4253 40.9336 33.3691 40.8669V40.443ZM35.0086 40.443L36.5064 40.4395V40.8635C36.1439 41.2269 35.193 41.0893 35.0086 40.8669V40.443ZM32.612 41.4873V41.1905L33.4288 41.1922C33.4288 41.1922 33.3587 41.5418 32.7911 41.5418C32.6337 41.5418 32.612 41.4873 32.612 41.4873ZM31.5313 41.489V41.1905L32.5177 41.1922V41.489C32.3948 41.6473 31.7701 41.7434 31.5313 41.489ZM30.3797 41.489V41.1905L31.4327 41.1922V41.489C31.3021 41.6473 30.6341 41.7434 30.3797 41.489ZM29.2298 41.489V41.1905H30.2811V41.489C30.1487 41.6473 29.4842 41.7434 29.2298 41.489ZM29.8078 50.156H29.2229V49.7302H29.8078V50.156ZM31.8636 50.156H31.2787V49.7302H31.8636V50.156ZM36.1568 48.5778L35.9544 49.7225C35.6256 49.7 35.2786 49.6801 34.9117 49.6576L35.1064 48.6038H34.9507L34.6894 49.6411C34.2888 49.6169 33.8752 49.5892 33.4599 49.565L33.6295 41.5513H33.5006L33.203 49.5469C33.0706 49.5373 32.9408 49.5321 32.8101 49.5209L33.3406 41.5513H33.209L32.5428 49.5044C31.1939 49.4196 29.9445 49.3384 29.2298 49.2934V41.8169H31.9069C32.2556 41.8169 32.6276 41.791 32.9763 41.7036C33.4253 41.5903 33.6113 41.3627 33.6935 41.2182H33.9445C34.0656 41.2217 34.1876 41.232 34.3061 41.232H37.4261L37.2773 49.8073C36.9727 49.7883 36.6102 49.7649 36.1871 49.7355L36.3022 48.5778H36.1568ZM36.637 40.4421H36.836C37.08 40.6272 37.2885 40.7873 37.4313 40.8981L37.4278 41.0841C37.0844 41.085 36.7417 40.9924 36.637 40.8669V40.4421ZM37.4399 40.4413L37.4374 40.5494L37.2902 40.4413H37.4399ZM37.209 34.4072L37.2081 34.1823H38.3882L38.3874 34.4072H37.209ZM37.119 34.4859C36.8758 34.6858 36.2581 34.6927 35.9959 34.4859L35.9933 34.1823H37.119V34.4859ZM35.905 34.4937C35.6567 34.6824 35.0995 34.5976 34.9602 34.4124V34.1823H35.905V34.4937ZM34.8858 34.4072C34.7846 34.4808 34.4385 34.4409 34.223 34.1892H34.8858V34.4072ZM38.3796 38.0073H38.1096V34.7983H38.3865L38.3796 38.0073ZM39.0518 40.443V40.8669C38.9316 41.0105 38.4998 41.1135 38.1096 41.0754V40.4421L39.0518 40.443ZM39.1825 40.4395L40.6811 40.443V40.8669C40.495 41.0902 39.5459 41.2269 39.1825 40.8635V40.4395ZM40.8213 40.4395L42.3198 40.443V40.8669C42.132 41.0902 41.1837 41.2269 40.8213 40.8635V40.4395ZM42.4539 40.4421L43.8426 40.443C43.8426 40.443 43.7258 40.9405 42.7558 40.9405C42.4902 40.9405 42.4539 40.8626 42.4539 40.8626V40.4421ZM51.7871 42.2954H51.9567L51.954 42.4269L51.7871 42.2954ZM50.7263 41.4544H51.9229V41.8792C51.82 41.9805 51.6703 42.0384 51.5041 42.0731L50.7263 41.4544ZM50.4243 41.881V41.5496C50.6666 41.7469 50.8907 41.9312 51.094 42.099C50.7938 42.0808 50.516 41.9908 50.4243 41.881ZM50.2945 41.8792C49.9311 42.2409 48.9837 42.1059 48.7969 41.881V41.457L50.2945 41.4544V41.8792ZM48.6558 41.8792C48.2941 42.2409 47.345 42.1059 47.159 41.881V41.457L48.6558 41.4544V41.8792ZM47.0232 41.8749C47.0232 41.8749 46.9859 41.9554 46.722 41.9554C45.753 41.9554 45.6345 41.457 45.6345 41.457H47.0232V41.8749ZM51.7507 35.8262L51.749 35.6012H52.93V35.8262H51.7507ZM51.659 35.904C51.4168 36.1021 50.799 36.1108 50.5368 35.904L50.5334 35.6012H51.659V35.904ZM50.4442 35.9092C50.1959 36.1004 49.6413 36.0157 49.5003 35.8287V35.6012H50.4468L50.4442 35.9092ZM49.4276 35.8227C49.3255 35.8971 48.9794 35.8564 48.7657 35.6047H49.4276V35.8227ZM52.9248 39.3329H52.6428V36.2146H52.9283L52.9248 39.3329ZM54.1188 41.457V41.881C53.9363 42.1033 53.0157 42.2349 52.6428 41.8922V41.4544L54.1188 41.457ZM54.2504 41.4544L55.7498 41.457V41.881C55.5629 42.1059 54.6146 42.2409 54.2504 41.8792V41.4544ZM55.8891 41.4544L57.3868 41.457V41.881C57.2008 42.1059 56.2533 42.2409 55.8891 41.8792V41.4544ZM57.5235 41.457H58.9105C58.9105 41.457 58.7928 41.9554 57.8228 41.9554C57.559 41.9554 57.5235 41.8749 57.5235 41.8749V41.457ZM22.7883 49.8713L22.6222 49.3106H22.9683L23.1335 49.8713H22.7883ZM22.4898 47.6788L22.9206 47.7351L23.0072 48.8737L22.5521 48.8425L22.4898 47.6788ZM22.1688 49.8713L22.0018 49.3106H22.347L22.5123 49.8713H22.1688ZM28.1077 30.6616C28.0636 30.6884 27.9935 30.6928 27.932 30.6928C27.7226 30.6928 27.4285 30.55 27.4285 30.4661H28.1077V30.6616ZM29.9359 27.3972H30.4888V27.5555C30.3875 27.6706 30.0163 27.661 29.9359 27.5555V27.3972ZM30.5502 27.3972H31.103V27.5555C31.0088 27.661 30.6211 27.6498 30.5493 27.5555L30.5502 27.3972ZM31.1567 27.3972H31.5227C31.5097 27.411 31.3617 27.5858 31.1567 27.5408V27.3972ZM29.967 30.4661H30.6808V30.6547C30.6272 30.736 30.4351 30.7759 30.2586 30.7646V30.5716H29.967V30.4661ZM30.7544 30.4661H31.4699V30.6547C31.3133 30.788 30.8773 30.8044 30.7544 30.6547V30.4661ZM31.5434 30.4661H32.2236C32.2236 30.55 31.9285 30.6928 31.7191 30.6928C31.6568 30.6928 31.5884 30.6884 31.5434 30.6616V30.4661ZM38.1572 25.0247V25.1709C38.0378 25.1554 37.927 25.1234 37.8743 25.0628V24.8387H38.6685V25.0247H38.1572ZM37.8025 25.0628C37.6588 25.2333 37.1466 25.2142 36.9606 25.0628V24.8387H37.8025V25.0628ZM36.862 25.0637C36.8092 25.0957 36.7279 25.1 36.6552 25.1C36.4086 25.1 36.0651 24.9365 36.0616 24.8387H36.862V25.0637ZM38.1659 20.9426V20.754H38.7853L38.7819 20.9521C38.6495 21.1026 38.3103 21.1044 38.1659 20.9426ZM38.0984 20.9426C37.9833 21.0923 37.5879 21.0983 37.4477 20.9426V20.754H38.0984V20.9426ZM37.3846 20.9383C37.1155 20.9954 36.9217 20.7635 36.9139 20.754H37.3846V20.9383ZM39.0501 20.754H39.6999V20.9426C39.5502 21.1079 39.173 21.1044 39.0501 20.9426V20.754ZM39.7709 20.754H40.4232V20.9426C40.2813 21.0983 39.8868 21.0923 39.7709 20.9426V20.754ZM40.4847 20.754H40.9528C40.9381 20.7713 40.7477 20.9954 40.4847 20.9383V20.754ZM39.879 24.8387V25.0628C39.7873 25.1736 39.5347 25.1986 39.3253 25.1735V25.0247H39.0744L39.0726 24.8387H39.879ZM39.9517 24.8387H40.7944V25.0628C40.6084 25.2142 40.0953 25.2333 39.9517 25.0628V24.8387ZM40.8913 24.8387H41.6917C41.689 24.9365 41.3447 25.1 41.0998 25.1C41.0263 25.1 40.9459 25.0957 40.8913 25.0637V24.8387ZM39.9119 34.1823L39.9101 34.4937C39.7267 34.6382 39.3322 34.6702 39.0449 34.6027V34.4072H38.9048L38.9021 34.1823H39.9119ZM40.0019 34.1823H41.1267L41.1232 34.4937C40.8749 34.691 40.2312 34.6824 40.0019 34.4937V34.1823ZM42.1615 34.1823V34.4124C42.0213 34.5976 41.4632 34.6824 41.2149 34.4937L41.2132 34.1823H42.1615ZM42.2333 34.1892H42.8952C42.6823 34.4409 42.3345 34.4808 42.2333 34.4072V34.1892ZM52.6912 27.8505V27.9951C52.5909 27.9708 52.5018 27.9362 52.4671 27.8869V27.6619H53.2017V27.8505H52.6912ZM52.3806 27.8869C52.237 28.0599 51.7239 28.04 51.5388 27.8869V27.6619H52.3806V27.8869ZM51.454 27.8886C51.4012 27.9215 51.319 27.9258 51.2454 27.9258C50.9997 27.9258 50.6527 27.7606 50.6527 27.6619H51.454V27.8886ZM52.7051 24.3628V24.1742H53.3151L53.3107 24.381C53.1714 24.5203 52.8478 24.522 52.7051 24.3628ZM52.6385 24.3628C52.5225 24.5108 52.1271 24.5186 51.9869 24.3628V24.1742H52.6385V24.3628ZM51.9229 24.3585C51.6556 24.4156 51.4643 24.1863 51.4548 24.1742H51.9229V24.3585ZM53.585 24.1742H54.2347V24.3628C54.0851 24.5307 53.7087 24.5246 53.5841 24.3628L53.585 24.1742ZM54.304 24.1742H54.9555V24.3628C54.8154 24.5186 54.4199 24.5108 54.304 24.3628V24.1742ZM55.0187 24.1742H55.4867C55.4694 24.1924 55.2817 24.4156 55.0187 24.3585V24.1742ZM54.2564 27.6619V27.8869C54.1872 27.9691 54.0245 28.0045 53.8584 28.0071V27.8505H53.5772L53.5755 27.6619H54.2564ZM54.3282 27.6619H55.1683V27.8869C54.9849 28.04 54.471 28.0599 54.3282 27.8869V27.6619ZM55.2687 27.6619H56.0682C56.0682 27.7606 55.7212 27.9258 55.4755 27.9258C55.4011 27.9258 55.3215 27.9215 55.2687 27.8886V27.6619ZM54.3758 35.6012L54.3715 35.9092C54.2028 36.045 53.8584 36.0762 53.5789 36.0295V35.8262H53.3523L53.3488 35.6012H54.3758ZM54.4632 35.6012H55.5906L55.5871 35.9092C55.3371 36.1082 54.6959 36.1004 54.4632 35.9092V35.6012ZM56.6228 35.6012V35.8287C56.4835 36.0157 55.9272 36.1004 55.6797 35.9092L55.6771 35.6012H56.6228ZM56.6972 35.6047H57.3591C57.1454 35.8564 56.7976 35.8971 56.6972 35.8227V35.6047ZM74.3235 40.4499L73.6097 40.7908L63.8846 45.5755V45.4353H63.4451V45.7952L61.9854 46.5558L61.68 45.989L61.4438 46.1041L61.7458 46.6605L60.0257 47.543L60.1866 47.8666L55.0766 50.6482C55.0481 50.5375 55.0576 50.2018 55.4599 50.0296L55.3094 49.7259C55.3094 49.7259 54.5082 50.0504 54.355 50.0945V50.0989C54.0453 50.1837 53.681 50.2459 53.2995 50.2459H52.6428V42.2954H56.4515C56.9689 42.2954 57.5235 42.2608 58.0409 42.1518C58.8533 41.9814 59.2202 41.5903 59.3327 41.4466H59.895V41.0512C60.4142 41.0512 60.5803 40.7103 60.5803 40.7103H56.6159V40.969H52.6428V40.4482C53.0555 40.3988 53.3808 40.1081 53.3808 39.7076C53.3808 39.7076 53.9164 39.7603 53.9164 39.3329H53.3946L53.3574 36.2146H55.7549C56.9083 36.2146 57.4525 35.7777 57.5261 35.6012H57.9768V35.2966C58.5046 35.2966 58.6214 35.0708 58.6214 35.0708H55.3725V35.3312H53.3462L53.277 29.5983H53.4985C53.8445 29.5983 53.8091 29.2868 53.8091 29.2868H53.5893L53.5789 28.1689H55.2566C56.0084 28.1689 56.294 27.6792 56.3044 27.6619H56.4524V27.5469C56.7474 27.5469 56.7976 27.4361 56.7976 27.4361H53.5738L53.5478 24.6128H54.663C55.2921 24.6128 55.5784 24.2443 55.6269 24.1742H55.7654V24.0687C55.9773 24.0687 56.0838 23.9501 56.0838 23.9501H53.5418L53.5166 20.9002H53.3652L53.3176 23.9484L53.2251 23.9501H50.8673C50.8673 23.9501 50.9738 24.0687 51.1857 24.0687V24.1742H51.3484C51.3787 24.2703 51.537 24.6128 52.3261 24.6128H53.3064L53.2631 27.4361H49.9217C49.9217 27.4361 49.9718 27.5469 50.2686 27.5469V27.6619H50.4174C50.4278 27.6792 50.7124 28.1689 51.4643 28.1689H52.9395V29.2868H52.6004C52.6004 29.6251 52.8989 29.5983 52.8989 29.5983H52.9378L52.9309 35.3312H50.7479V35.0708H47.5007C47.5007 35.0708 47.615 35.2966 48.1436 35.2966V35.6012H48.5978C48.6696 35.7777 49.2165 36.2146 50.369 36.2146H52.0709L52.0129 39.3329H51.0914C51.0914 39.3329 51.0828 39.711 51.5318 39.711H52.006L51.9818 40.9829H50.1267L46.7082 38.2791L46.6182 38.3829C46.5871 38.3864 48.2466 39.7586 49.7347 40.9829H47.9265V40.7268H43.9681C43.9681 40.7268 44.135 41.0668 44.655 41.0668V41.4501H45.156C45.2875 41.5972 45.6933 41.9814 46.5057 42.1518C47.0232 42.2608 47.576 42.2954 48.0952 42.2954H51.3337C51.6157 42.5282 51.839 42.709 51.948 42.7972L51.8087 50.2459H50.8526L50.946 49.4127H50.7886L50.638 50.2459H49.8187L49.9805 49.3997H49.8247L49.6033 50.2459H48.8003L49.0417 49.3894H48.8851L48.5823 50.2459H47.5622L47.75 43.9774H47.5432L47.3043 50.2459H47.0102L47.3502 43.9739H47.1434L46.7506 50.2459H46.5057C46.5057 50.2459 46.2497 50.2139 46.1052 50.4596H39.0268C39.0268 50.4596 38.7369 49.9405 38.1096 49.8713V41.232H41.3836C41.9011 41.232 42.4539 41.2 42.9731 41.0893C43.7301 40.931 44.0667 40.5736 44.1869 40.4075H44.8246V40.0813C45.3455 40.0813 45.5661 39.7162 45.5661 39.7162H41.5498V39.9818H38.1096V39.1997C38.7049 39.1624 38.9636 38.8744 38.9636 38.4607C38.9636 38.4607 39.5389 38.5256 39.5389 38.0073H38.9532L38.9109 34.7983H41.2911C42.447 34.7983 42.993 34.3587 43.063 34.1823H43.5121V33.8794C44.0416 33.8794 44.1558 33.6535 44.1558 33.6535H40.9086V33.9149H38.8996L38.8087 27.1359H38.9636C39.3097 27.1359 39.2742 26.8218 39.2742 26.8218H39.0891L39.0769 25.3379H40.881C41.6138 25.3379 41.8984 24.8776 41.9227 24.8387L42.0758 24.8361L42.0749 24.7227C42.3717 24.7227 42.4228 24.612 42.4228 24.612H39.0709L39.0441 21.1926H40.1481C40.7719 21.1926 41.06 20.8275 41.1119 20.754H41.2305V20.6484C41.4442 20.6484 41.5498 20.5299 41.5498 20.5299H39.0371L39.012 17.48H38.8303L38.788 20.5282L38.6859 20.5299H36.3273C36.3273 20.5299 36.4337 20.6484 36.6474 20.6484V20.754H36.7581C36.8109 20.8275 37.0973 21.1926 37.7203 21.1926H38.7784L38.7326 24.612H35.3469C35.3469 24.612 35.3972 24.7227 35.694 24.7227V24.8361L35.8315 24.837C35.8557 24.8776 36.1395 25.3379 36.8741 25.3379H38.4055L38.4029 26.8218H38.0672C38.0672 27.1618 38.364 27.1359 38.364 27.1359H38.4021L38.3882 33.9149H36.2061V33.6535H32.9598C32.9598 33.6535 33.0741 33.8794 33.6027 33.8794V34.1823H34.0768C34.1478 34.3587 34.6938 34.7983 35.8497 34.7983H37.5368L37.4815 38.0073H36.4207C36.4207 38.0073 36.4129 38.3846 36.8611 38.3846H37.4754L37.4477 39.9818H36.6716L32.9944 37.2667L32.8889 37.3792C32.8577 37.3827 34.8235 38.8968 36.2381 39.9818H34.1452V39.7162H30.2257C30.2543 39.6703 30.2863 39.6201 30.2863 39.5414H29.8364L29.8104 37.246H31.4933C32.349 37.246 32.7245 36.893 32.7245 36.7944L32.7228 36.7892H33.0187V36.7225C33.1796 36.7225 33.2713 36.5849 33.2713 36.5849H29.8026L29.7498 31.9413H29.8943C30.1886 31.9413 30.1599 31.6774 30.1599 31.6774H29.9584L29.9514 30.89H31.5331C32.1569 30.89 32.3992 30.5007 32.4191 30.4661H32.5497V30.3865C32.8015 30.3865 32.8439 30.2766 32.8439 30.2766H29.9462L29.9255 27.7286H30.8703C31.3081 27.7286 31.5582 27.5079 31.6568 27.3972H31.7892V27.3089C31.9717 27.3089 32.0609 27.2068 32.0609 27.2068H29.9194L29.8987 24.6665H29.7758L29.7369 27.2059L29.6426 27.2068H27.637C27.637 27.2068 27.7278 27.3089 27.9095 27.3089V27.3972H28.0358C28.1345 27.5079 28.3837 27.7286 28.8232 27.7286H29.7282L29.6902 30.2766H26.8072C26.8072 30.2766 26.8496 30.3865 27.1006 30.3865V30.4661H27.2321C27.2528 30.5007 27.4951 30.89 28.1189 30.89H29.4427L29.4436 31.6774H29.1312C29.1312 31.9664 29.3847 31.9413 29.3847 31.9413H29.4436L29.4479 36.5849H25.8806C25.8806 36.5849 25.9688 36.7225 26.1324 36.7225V36.7892H26.4395C26.4802 36.9112 26.8566 37.246 27.6646 37.246H28.799L28.7479 39.5414H27.8576C27.8576 39.5414 27.849 39.9039 28.279 39.9039H28.7402L28.7211 40.7536L20.8458 35.506L20.7688 35.5951C20.7126 35.615 27.149 40.0138 28.516 40.9517H23.5661C23.6794 41.1412 23.971 41.1378 23.971 41.1378V41.2182H24.2721C24.3543 41.3627 24.5395 41.5903 24.9911 41.7036C25.3398 41.791 25.7102 41.8169 26.0597 41.8169H28.6977L28.5585 48.1244L23.1793 47.4772L22.5806 40.7622H22.3834L22.8982 47.4443L22.4751 47.3924L22.1151 40.744H21.9404L22.199 47.3578L16.3744 46.6587L16.3545 46.8577L22.2103 47.6425L22.2553 48.8244L20.8952 48.7301L21.0258 49.1307C21.0258 49.1307 21.4593 49.0943 21.6782 49.6109C21.8184 49.9405 21.8339 49.9794 21.8339 49.9794L21.8997 50.1586H24.4391L24.5161 50.4129H21.4177L21.5311 50.7608C21.5311 50.7608 22.0918 50.7279 22.2415 51.0878C22.3418 51.3223 22.5875 51.9825 22.5962 52.0032H55.4072C55.4072 52.0032 56.6184 51.9989 56.9654 51.6182C56.9654 51.6182 56.2983 52.6772 54.6397 52.6772L54.1932 52.6763H53.3843V52.2515H52.8003V52.6763H51.3293V52.2515H50.7453V52.6763H49.2744V52.2515H48.6904V52.6763H47.2187V52.2515H46.6347V52.6763H45.1638V52.2515H44.5789V52.6763H43.1089V52.2515H42.5249V52.6763H41.0531V52.2515H40.4691V52.6763H38.9991V52.2515H38.4133V52.6763H36.9425V52.2515H36.3584V52.6763H34.8867V52.2515H34.3035V52.6763H32.8317V52.2515H32.2478V52.6763H30.776V52.2515H30.1928V52.6763H28.7211V52.2515H28.1362V52.6763H26.6662V52.2515H26.0813V52.6763H24.4867L24.8778 52.2264L22.7883 52.2281L23.169 52.6712L22.9683 54.7615H54.336V54.7581H56.609C56.609 54.7581 56.5242 54.0027 57.4067 53.1021C58.1179 52.377 58.2433 52.1823 58.3852 51.9652C58.6405 51.5706 58.8793 51.1025 58.9814 49.7355H58.5851C58.5851 49.7355 58.0547 49.7467 57.7909 50.1144C57.3946 50.6647 56.9862 50.9087 56.6401 51.0152C56.3494 51.1077 55.9592 51.1492 55.6347 51.0757L62.1576 47.524L62.5071 48.2335L62.7165 48.1037L62.3713 47.4072L63.1025 47.0083L63.1345 52.0733H63.2088L63.4615 47.0187H63.8768V46.0886L73.6642 40.9293L74.3832 40.5805" fill="#231F20"/>
<path d="M19.7572 40.1712L19.6595 40.2993L19.5479 40.2154L19.6473 40.0864" fill="white"/>
</svg>
